<?xml version="1.0" encoding="utf-8"?>
<!-- Generator: Adobe Illustrator 18.1.0, SVG Export Plug-In . SVG Version: 6.00 Build 0)  -->
<!DOCTYPE svg PUBLIC "-//W3C//DTD SVG 1.0//EN" "http://www.w3.org/TR/2001/REC-SVG-20010904/DTD/svg10.dtd">
<svg version="1.0" id="Layer_1" xmlns="http://www.w3.org/2000/svg" xmlns:xlink="http://www.w3.org/1999/xlink" x="0px" y="0px"
	 viewBox="56.695 0 141.73 141.73" enable-background="new 56.695 0 141.73 141.73" xml:space="preserve">
<g id="Layer_1_1_">
	<g>
		<circle fill="#0087CA" cx="127.56" cy="70.865" r="70.865"/>
		<g>
			<g>
				<defs>
					<circle id="SVGID_1_" cx="127.56" cy="70.865" r="70.865"/>
				</defs>
				<clipPath id="SVGID_2_">
					<use xlink:href="#SVGID_1_"  overflow="visible"/>
				</clipPath>
				<polygon clip-path="url(#SVGID_2_)" fill="#0076AF" points="156.706,41.234 211.432,95.444 143.279,170.039 124.157,163.257 
					97.087,111.514 156.043,111.191 156.706,104.579 156.706,57.661 				"/>
			</g>
		</g>
	</g>
	
		<polyline fill="none" stroke="#FFFFFF" stroke-width="2.8346" stroke-linecap="round" stroke-linejoin="round" stroke-miterlimit="10" points="
		151.723,111.514 97.087,111.514 97.087,41.245 156.706,41.245 156.706,106.487 	"/>
	<g>
		<g>
			<polygon fill="#0087CA" points="133.972,31.888 131.089,23.668 122.705,23.668 119.821,31.888 111.193,31.888 111.193,46.836 
				142.6,46.836 142.6,31.888 			"/>
		</g>
		<g>
			
				<polygon fill="none" stroke="#FFFFFF" stroke-width="2.8346" stroke-linecap="round" stroke-linejoin="round" stroke-miterlimit="10" points="
				133.972,31.888 131.089,23.668 122.705,23.668 119.821,31.888 111.193,31.888 111.193,46.836 142.6,46.836 142.6,31.888 			"/>
		</g>
	</g>
	
		<line fill="none" stroke="#FFFFFF" stroke-width="2.8346" stroke-linecap="round" stroke-linejoin="round" stroke-miterlimit="10" x1="106.034" y1="59.695" x2="147.76" y2="59.695"/>
	
		<line fill="none" stroke="#FFFFFF" stroke-width="2.8346" stroke-linecap="round" stroke-linejoin="round" stroke-miterlimit="10" x1="106.034" y1="71.393" x2="147.76" y2="71.393"/>
	
		<line fill="none" stroke="#FFFFFF" stroke-width="2.8346" stroke-linecap="round" stroke-linejoin="round" stroke-miterlimit="10" x1="106.034" y1="83.091" x2="147.76" y2="83.091"/>
	<g>
		<g>
			<path fill="#FFFFFF" d="M128.923,105.941c6.906-2.745,14.042-4.882,21.012-7.453c0.604-0.223,0.343-1.198-0.269-0.973
				c-6.971,2.572-14.107,4.707-21.012,7.453C128.058,105.206,128.319,106.182,128.923,105.941L128.923,105.941z"/>
		</g>
	</g>
	<g>
		<g>
			<path fill="#FFFFFF" d="M131.651,102.912c0.877-2.718,1.543-5.516,2.718-8.13c0.26-0.58-0.535-1.082-0.872-0.51
				c-2.34,3.987-4.604,8.063-6.105,12.452c-0.211,0.615,0.764,0.88,0.973,0.269c1.473-4.304,3.709-8.298,6.004-12.211
				c-0.291-0.17-0.581-0.34-0.872-0.51c-1.212,2.696-1.915,5.566-2.82,8.371C130.478,103.263,131.453,103.529,131.651,102.912
				L131.651,102.912z"/>
		</g>
	</g>
	<g>
		<g>
			<path fill="#FFFFFF" d="M146.911,91.076c-0.132,0.94-0.371,1.788-0.827,2.625c-0.214,0.394,0.138,0.842,0.57,0.742
				c0.707-0.166,1.309-0.409,1.944-0.757c-0.23-0.23-0.46-0.46-0.691-0.691c-1.154,2.061-2.708,3.762-4.35,5.439
				c-0.393,0.402,0.115,1.104,0.611,0.792c0.962-0.603,1.925-1.207,2.886-1.811c0.549-0.344,0.043-1.218-0.51-0.872
				c-0.962,0.603-1.925,1.207-2.886,1.811c0.203,0.264,0.408,0.528,0.611,0.792c1.706-1.741,3.311-3.505,4.507-5.643
				c0.249-0.445-0.247-0.934-0.691-0.691c-0.549,0.301-1.093,0.513-1.703,0.655c0.19,0.247,0.379,0.494,0.57,0.742
				c0.498-0.918,0.782-1.829,0.929-2.867C147.973,90.71,147.002,90.435,146.911,91.076L146.911,91.076z"/>
		</g>
	</g>
	<g>
		<g>
			<path fill="#FFFFFF" d="M134.013,99.867c1.353-1.066,4.588-3.551,3.912-5.67c-0.066-0.209-0.259-0.375-0.486-0.37
				c-2.95,0.065,0.574,4.672-2.079,5.178c-0.64,0.122-0.365,1.083,0.269,0.973c1.976-0.345,4.677-1.776,5.099-3.924
				c0.077-0.394-0.349-0.839-0.742-0.57c-0.753,0.516-1.357,1.067-1.921,1.791c-0.295,0.378-0.038,0.977,0.491,0.843
				c2.368-0.595,4.022-1.245,5.314-3.366c-0.313-0.084-0.627-0.17-0.94-0.254c0.321,2.553-1.784,5.159-4.273,5.549
				c-0.64,0.1-0.368,1.073,0.269,0.973c2.89-0.453,5.388-3.562,5.015-6.521c-0.059-0.471-0.658-0.718-0.94-0.254
				c-1.152,1.892-2.662,2.386-4.711,2.902c0.164,0.281,0.328,0.563,0.491,0.843c0.529-0.679,0.981-1.129,1.716-1.633
				c-0.247-0.19-0.494-0.379-0.742-0.57c-0.342,1.742-2.832,2.947-4.394,3.219c0.09,0.324,0.179,0.649,0.269,0.973
				c1.462-0.279,2.212-1.518,2.013-2.978c-0.056-0.412-0.21-0.786-0.358-1.172c-0.121-0.278-0.242-0.554-0.362-0.832
				c-0.218,0.632-0.548,1.198-0.993,1.699c-0.757,0.929-1.692,1.723-2.628,2.461C132.789,99.555,133.509,100.264,134.013,99.867
				L134.013,99.867z"/>
		</g>
	</g>
</g>
<g id="Layer_3">
</g>
</svg>
