<?xml version="1.0" encoding="utf-8"?>
<!-- Generator: Adobe Illustrator 18.1.1, SVG Export Plug-In . SVG Version: 6.00 Build 0)  -->
<!DOCTYPE svg PUBLIC "-//W3C//DTD SVG 1.0//EN" "http://www.w3.org/TR/2001/REC-SVG-20010904/DTD/svg10.dtd">
<svg version="1.0" id="Layer_1" xmlns="http://www.w3.org/2000/svg" xmlns:xlink="http://www.w3.org/1999/xlink" x="0px" y="0px"
	 width="20px" height="20px" viewBox="0 0 20 20" enable-background="new 0 0 20 20" xml:space="preserve">
<g>
	<circle fill="#0787C9" cx="10" cy="10" r="10"/>
	<g>
		<defs>
			<circle id="SVGID_1_" cx="10" cy="10" r="10"/>
		</defs>
		<clipPath id="SVGID_2_">
			<use xlink:href="#SVGID_1_"  overflow="visible"/>
		</clipPath>
		<polygon clip-path="url(#SVGID_2_)" fill="#0076B0" points="13.642,3.944 22.375,13.468 10.323,24.844 3.484,14.606 
			10.651,11.197 		"/>
	</g>
</g>
<g>
	<polygon fill="#0787C9" points="7.324,4.154 10.323,6.128 10.323,9.902 7.193,8.146 	"/>
	<polygon fill="#188FCD" points="10.323,2.086 13.381,4.154 10.323,6.128 7.193,4.154 	"/>
	<polygon fill="#0076B0" points="10.451,6.06 13.381,4.154 13.381,8.21 10.316,10.121 	"/>
	<path fill="#FEFEFE" d="M13.722,7.548c-0.021-0.061-0.061-0.111-0.104-0.157C13.497,7.26,13.3,7.258,13.162,7.374
		c-0.105,0.088-0.133,0.198-0.122,0.325c0.009,0.111-0.036,0.185-0.129,0.246c-0.715,0.463-1.423,0.935-2.135,1.402
		c-0.031,0.02-0.062,0.057-0.102,0.035c-0.041-0.021-0.028-0.068-0.028-0.104c-0.001-0.954,0-1.907-0.002-2.861
		c0-0.109,0.042-0.178,0.132-0.234c0.711-0.45,1.418-0.907,2.128-1.36c0.196-0.125,0.137,0.188,0.137,0.308
		c0,0.212-0.001,0.424,0.001,0.636c0.002,0.258,0.189,0.402,0.44,0.341c0.167-0.059,0.245-0.164,0.246-0.345
		c0.004-0.554,0.015-1.111,0-1.665c-0.002-0.065-0.013-0.125-0.084-0.153c-0.04-0.037-0.075-0.08-0.119-0.109
		c-1.001-0.643-2.005-1.282-3.005-1.926c-0.157-0.101-0.292-0.101-0.45,0.001C9.094,2.54,8.117,3.167,7.135,3.787
		C6.969,3.892,6.902,4.018,6.902,4.21C6.908,5.473,6.91,6.737,6.905,8C6.904,8.145,6.961,8.252,7.088,8.334
		c0.819,0.524,2.831,1.917,2.968,2.01c0.159,0.107,0.311,0.105,0.471,0c1.021-0.667,2.04-1.338,3.058-2.011
		C13.809,8.185,13.736,7.775,13.722,7.548z M9.443,3.028c0.26-0.167,0.521-0.333,0.78-0.501c0.048-0.031,0.085-0.038,0.137-0.004
		c0.799,0.514,1.599,1.026,2.398,1.539c0.015,0.01,0.029,0.023,0.057,0.045c-0.306,0.195-0.598,0.384-0.893,0.566
		c-0.025,0.015-0.085-0.003-0.117-0.024c-0.613-0.391-1.224-0.784-1.835-1.178C9.775,3.344,9.58,3.218,9.373,3.085
		C9.402,3.061,9.421,3.042,9.443,3.028z M9.991,9.408c0,0.028-0.003,0.056-0.006,0.101C9.948,9.488,9.921,9.475,9.896,9.458
		c-0.77-0.505-1.541-1.011-2.309-1.519C7.551,7.915,7.516,7.86,7.515,7.82C7.511,6.79,7.512,5.76,7.513,4.73
		c0-0.018,0.005-0.036,0.01-0.065c0.035,0.02,0.062,0.033,0.088,0.05c0.763,0.488,1.525,0.977,2.288,1.463
		C9.96,6.217,9.994,6.258,9.993,6.337C9.991,7.361,9.992,8.384,9.991,9.408z M10.372,5.671c-0.046,0.03-0.085,0.045-0.139,0.01
		C9.431,5.166,8.629,4.653,7.827,4.138C7.813,4.13,7.802,4.119,7.781,4.101C7.81,4.079,7.833,4.059,7.858,4.043
		C8.151,3.855,8.444,3.669,8.735,3.48c0.049-0.032,0.087-0.035,0.138-0.002c0.798,0.515,1.597,1.028,2.396,1.542
		c0.013,0.008,0.025,0.019,0.052,0.039c-0.048,0.032-0.084,0.057-0.121,0.081C10.924,5.317,10.648,5.493,10.372,5.671z"/>
	<path fill="#9CCFE9" d="M13.68,6.892c-0.107,0.214-0.272,0.285-0.445,0.192c-0.121-0.065-0.175-0.196-0.145-0.354
		c0.022-0.12,0.118-0.208,0.251-0.23c0.124-0.021,0.244,0.042,0.308,0.163c0.01,0.02,0.021,0.039,0.031,0.059
		C13.679,6.778,13.68,6.835,13.68,6.892z"/>
</g>
<g>
	<polygon fill="#0787C9" points="10.701,10.594 13.7,12.568 13.7,16.342 10.57,14.586 	"/>
	<polygon fill="#0076B0" points="13.7,8.526 16.758,10.594 13.7,12.568 10.57,10.594 	"/>
	<polygon fill="#0076B0" points="13.828,12.5 16.758,10.594 16.758,14.65 13.693,16.561 	"/>
	<path fill="#9CCFE9" d="M17.057,13.332c-0.107,0.214-0.272,0.285-0.445,0.192c-0.121-0.065-0.175-0.196-0.145-0.354
		c0.022-0.12,0.118-0.208,0.251-0.23c0.124-0.021,0.244,0.042,0.308,0.163c0.01,0.02,0.021,0.039,0.031,0.059
		C17.056,13.218,17.057,13.275,17.057,13.332z"/>
	<linearGradient id="SVGID_3_" gradientUnits="userSpaceOnUse" x1="13.299" y1="9.9961" x2="12.6291" y2="5.7377">
		<stop  offset="0" style="stop-color:#FFFFFF"/>
		<stop  offset="1" style="stop-color:#0787C9"/>
	</linearGradient>
	<path fill="url(#SVGID_3_)" d="M17.099,13.988c-0.021-0.061-0.061-0.111-0.104-0.157c-0.122-0.132-0.318-0.134-0.456-0.018
		c-0.105,0.088-0.133,0.198-0.122,0.325c0.009,0.111-0.036,0.185-0.129,0.246c-0.715,0.463-1.423,0.935-2.135,1.402
		c-0.031,0.02-0.062,0.057-0.102,0.036c-0.041-0.021-0.028-0.068-0.028-0.104c-0.001-0.954,0-1.907-0.002-2.861
		c0-0.109,0.042-0.178,0.132-0.234c0.711-0.45,1.418-0.907,2.128-1.36c0.196-0.125,0.137,0.188,0.137,0.308
		c0,0.212-0.001,0.424,0.001,0.636c0.002,0.258,0.189,0.402,0.44,0.341c0.167-0.059,0.245-0.164,0.246-0.345
		c0.004-0.554,0.015-1.111,0-1.665c-0.002-0.065-0.013-0.125-0.084-0.153c-0.04-0.037-0.075-0.08-0.119-0.109
		c-1.001-0.643-2.005-1.282-3.005-1.926c-0.157-0.101-0.292-0.101-0.45,0.001c-0.975,0.63-1.952,1.257-2.934,1.877
		c-0.166,0.105-0.234,0.23-0.233,0.423c0.005,1.263,0.007,2.527,0.002,3.79c-0.001,0.145,0.056,0.252,0.183,0.333
		c0.819,0.524,2.831,1.917,2.968,2.01c0.159,0.107,0.311,0.105,0.471,0c1.021-0.667,2.04-1.338,3.058-2.011
		C17.186,14.625,17.113,14.215,17.099,13.988z M12.82,9.468c0.26-0.167,0.521-0.333,0.78-0.501c0.048-0.031,0.085-0.038,0.137-0.004
		c0.799,0.514,1.599,1.026,2.398,1.539c0.015,0.01,0.029,0.023,0.057,0.045c-0.306,0.195-0.598,0.384-0.893,0.566
		c-0.025,0.015-0.085-0.003-0.117-0.024c-0.613-0.391-1.224-0.784-1.835-1.178c-0.195-0.126-0.391-0.251-0.598-0.385
		C12.779,9.501,12.798,9.482,12.82,9.468z M13.368,15.848c0,0.028-0.003,0.056-0.006,0.101c-0.037-0.021-0.064-0.034-0.089-0.051
		c-0.77-0.505-1.541-1.011-2.309-1.519c-0.036-0.024-0.071-0.079-0.071-0.119c-0.004-1.03-0.003-2.06-0.003-3.09
		c0-0.018,0.005-0.036,0.01-0.065c0.035,0.02,0.062,0.033,0.088,0.05c0.763,0.488,1.525,0.977,2.288,1.463
		c0.061,0.039,0.095,0.079,0.095,0.159C13.368,13.801,13.369,14.824,13.368,15.848z M13.749,12.111
		c-0.046,0.03-0.085,0.045-0.139,0.01c-0.801-0.515-1.604-1.029-2.406-1.543c-0.013-0.008-0.024-0.02-0.046-0.038
		c0.029-0.022,0.052-0.041,0.078-0.058c0.292-0.188,0.586-0.374,0.877-0.563c0.049-0.032,0.087-0.035,0.138-0.002
		c0.798,0.515,1.597,1.028,2.396,1.542c0.013,0.008,0.025,0.019,0.052,0.039c-0.048,0.032-0.084,0.057-0.121,0.081
		C14.301,11.757,14.025,11.933,13.749,12.111z"/>
</g>
<g>
	<polygon fill="#0787C9" points="3.866,10.594 6.866,12.568 6.866,16.342 3.735,14.586 	"/>
	<polygon fill="#188FCD" points="6.866,8.526 9.923,10.594 6.866,12.568 3.735,10.594 	"/>
	<polygon fill="#0076B0" points="6.994,12.5 9.923,10.594 9.923,14.65 6.858,16.561 	"/>
	<path fill="#9CCFE9" d="M10.222,13.332c-0.107,0.214-0.272,0.285-0.445,0.192c-0.121-0.065-0.175-0.196-0.145-0.354
		c0.022-0.12,0.118-0.208,0.251-0.23c0.124-0.021,0.244,0.042,0.308,0.163c0.01,0.02,0.021,0.039,0.031,0.059
		C10.222,13.218,10.222,13.275,10.222,13.332z"/>
	<linearGradient id="SVGID_4_" gradientUnits="userSpaceOnUse" x1="9.9273" y1="12.5442" x2="11.979" y2="12.5442">
		<stop  offset="0" style="stop-color:#FFFFFF"/>
		<stop  offset="1" style="stop-color:#0787C9"/>
	</linearGradient>
	<path fill="url(#SVGID_4_)" d="M10.301,13.988c-0.021-0.061-0.061-0.111-0.104-0.157c-0.122-0.132-0.318-0.134-0.456-0.018
		c-0.105,0.088-0.133,0.198-0.122,0.325c0.009,0.111-0.036,0.185-0.129,0.246c-0.715,0.463-1.423,0.935-2.135,1.402
		c-0.031,0.02-0.062,0.057-0.102,0.036c-0.041-0.021-0.028-0.068-0.028-0.104c-0.001-0.954,0-1.907-0.002-2.861
		c0-0.109,0.042-0.178,0.132-0.234c0.711-0.45,1.418-0.907,2.128-1.36c0.196-0.125,0.137,0.188,0.137,0.308
		c0,0.212-0.001,0.424,0.001,0.636c0.002,0.258,0.189,0.402,0.44,0.341c0.167-0.059,0.245-0.164,0.246-0.345
		c0.004-0.554,0.015-1.111,0-1.665c-0.002-0.065-0.013-0.125-0.084-0.153c-0.04-0.037-0.075-0.08-0.119-0.109
		C9.101,9.633,8.229,8.918,7.229,8.273C7.072,8.172,6.806,8.248,6.648,8.35c-0.975,0.63-1.952,1.257-2.934,1.877
		c-0.166,0.105-0.234,0.23-0.233,0.423c0.005,1.263,0.007,2.527,0.002,3.79c-0.001,0.145,0.056,0.252,0.183,0.333
		c0.819,0.524,2.831,1.917,2.968,2.01c0.159,0.107,0.311,0.105,0.471,0c1.021-0.667,2.041-1.338,3.058-2.011
		C10.388,14.625,10.315,14.215,10.301,13.988z M6.022,9.468c0.26-0.167,0.521-0.333,0.78-0.501C6.851,8.935,6.888,8.929,6.94,8.962
		c0.799,0.514,1.599,1.026,2.398,1.539c0.015,0.01,0.029,0.023,0.057,0.045c-0.306,0.195-0.598,0.384-0.893,0.566
		c-0.025,0.015-0.085-0.003-0.117-0.024C7.772,10.696,7.161,10.303,6.55,9.91C6.354,9.784,6.159,9.658,5.952,9.525
		C5.981,9.501,6,9.482,6.022,9.468z M6.57,15.848c0,0.028-0.003,0.056-0.006,0.101c-0.037-0.021-0.064-0.034-0.089-0.051
		c-0.77-0.505-1.541-1.011-2.309-1.519C4.13,14.355,4.095,14.3,4.094,14.26c-0.004-1.03-0.003-2.06-0.003-3.09
		c0-0.018,0.005-0.036,0.01-0.065c0.035,0.02,0.062,0.033,0.088,0.05c0.763,0.488,1.525,0.977,2.288,1.463
		c0.061,0.039,0.095,0.079,0.095,0.159C6.57,13.801,6.571,14.824,6.57,15.848z M6.951,12.111c-0.046,0.03-0.085,0.045-0.139,0.01
		c-0.801-0.515-1.604-1.029-2.406-1.543c-0.013-0.008-0.024-0.02-0.046-0.038c0.029-0.022,0.052-0.041,0.078-0.058
		c0.292-0.188,0.586-0.374,0.877-0.563c0.049-0.032,0.087-0.035,0.138-0.002c0.798,0.515,1.597,1.028,2.396,1.542
		c0.013,0.008,0.025,0.019,0.052,0.039c-0.048,0.032-0.084,0.057-0.121,0.081C7.503,11.757,7.227,11.933,6.951,12.111z"/>
</g>
</svg>
