<?xml version="1.0" encoding="utf-8"?>
<!-- Generator: Adobe Illustrator 18.1.0, SVG Export Plug-In . SVG Version: 6.00 Build 0)  -->
<!DOCTYPE svg PUBLIC "-//W3C//DTD SVG 1.0//EN" "http://www.w3.org/TR/2001/REC-SVG-20010904/DTD/svg10.dtd">
<svg version="1.0" id="Layer_1" xmlns="http://www.w3.org/2000/svg" xmlns:xlink="http://www.w3.org/1999/xlink" x="0px" y="0px"
	 viewBox="-0.088 10.134 160 34.92" enable-background="new -0.088 10.134 160 34.92" xml:space="preserve">
<g>
	<path fill="#FFFFFF" d="M22.708,33.149V14.944h3.135c1.666,0,2.903,0.433,3.709,1.302c0.808,0.869,1.212,2.196,1.212,3.983
		c0,1.708-0.387,3.031-1.17,3.972c-0.782,0.945-1.872,1.419-3.286,1.419c-0.175,0-0.313,0-0.406-0.002
		c-0.097-0.005-0.183-0.014-0.266-0.021l-0.01,7.555L22.708,33.149L22.708,33.149z M25.628,22.839c0.035,0,0.089,0.003,0.161,0.013
		c0.073,0.009,0.127,0.014,0.164,0.014c0.642,0,1.127-0.223,1.463-0.669c0.336-0.442,0.501-1.081,0.501-1.915
		c0-0.864-0.158-1.503-0.476-1.915c-0.313-0.409-0.812-0.618-1.487-0.618c-0.034,0-0.089,0.005-0.164,0.014
		c-0.07,0.008-0.124,0.013-0.161,0.013L25.628,22.839L25.628,22.839z"/>
	<path fill="#FFFFFF" d="M31.087,33.149l3.518-18.205h3.16l3.357,18.205h-3.017l-0.505-3.192h-3.038l-0.467,3.192H31.087z
		 M35.113,27.124h2.012c-0.21-1.272-0.393-2.605-0.561-3.997c-0.167-1.391-0.31-2.859-0.436-4.405
		c-0.151,1.362-0.313,2.746-0.484,4.145C35.475,24.27,35.302,25.687,35.113,27.124z"/>
	<path fill="#FFFFFF" d="M53.184,32.641l-1.637,1.711l-1.422-1.883c-0.313,0.248-0.667,0.433-1.059,0.558
		c-0.388,0.12-0.834,0.175-1.329,0.175c-1.68,0-2.981-0.834-3.908-2.506c-0.928-1.667-1.391-4.016-1.391-7.042
		c0-2.81,0.474-5.024,1.419-6.639c0.948-1.616,2.242-2.426,3.885-2.426c1.694,0,3.001,0.834,3.933,2.498
		c0.928,1.669,1.391,4.026,1.391,7.077c0,1.498-0.118,2.775-0.355,3.836c-0.236,1.059-0.594,1.932-1.078,2.6L53.184,32.641z
		 M48.222,26.061l1.419,1.881c0.139-0.507,0.239-1.075,0.306-1.715c0.068-0.635,0.1-1.392,0.1-2.265c0-1.958-0.195-3.438-0.583-4.43
		c-0.393-0.993-0.968-1.492-1.728-1.492c-0.787,0-1.371,0.511-1.75,1.529c-0.376,1.019-0.567,2.587-0.567,4.705
		c0,1.819,0.194,3.206,0.583,4.158c0.392,0.948,0.957,1.426,1.703,1.426c0.065,0,0.132-0.003,0.209-0.013
		c0.073-0.01,0.164-0.021,0.258-0.038l-1.586-2.117L48.222,26.061z"/>
	<path fill="#FFFFFF" d="M64.916,14.943v11.432c0,1.4-0.035,2.393-0.103,2.977c-0.07,0.585-0.185,1.072-0.342,1.451
		c-0.369,0.878-0.895,1.522-1.592,1.941c-0.694,0.421-1.586,0.631-2.678,0.631c-1.093,0-1.988-0.21-2.686-0.631
		c-0.705-0.422-1.234-1.063-1.593-1.941c-0.167-0.385-0.282-0.878-0.354-1.467c-0.067-0.59-0.102-1.573-0.102-2.957v-0.538V14.945
		h3.016v11.72c0,1.485,0.127,2.448,0.378,2.872c0.252,0.431,0.697,0.644,1.34,0.644c0.653,0,1.108-0.218,1.35-0.654
		c0.243-0.435,0.369-1.389,0.369-2.859V14.944L64.916,14.943L64.916,14.943z"/>
	<polygon fill="#FFFFFF" points="67.857,33.149 67.857,14.943 74.218,14.943 74.218,18.31 70.777,18.31 70.777,21.988 
		73.894,21.988 73.894,25.329 70.777,25.329 70.777,29.593 74.218,29.593 74.218,33.149 	"/>
	<polygon fill="#FFFFFF" points="79.112,33.149 79.112,18.31 76.803,18.31 76.803,14.943 84.451,14.943 84.451,18.31 82.145,18.31 
		82.145,33.149 	"/>
	<polygon fill="#FFFFFF" points="86.948,33.149 86.948,14.943 93.309,14.943 93.309,18.31 89.868,18.31 89.868,21.988 
		92.986,21.988 92.986,25.329 89.868,25.329 89.868,29.593 93.309,29.593 93.309,33.149 	"/>
	<path fill="#FFFFFF" d="M101.773,33.149l-1.188-3.703c-0.116-0.384-0.228-0.801-0.326-1.25c-0.101-0.457-0.186-0.933-0.264-1.429
		c-0.074,0.507-0.158,0.986-0.248,1.438c-0.092,0.457-0.182,0.869-0.279,1.242l-1.038,3.703h-3.438l3.499-9.215l-3.191-8.99h3.167
		l1.141,3.826c0.061,0.209,0.13,0.49,0.205,0.838c0.081,0.349,0.164,0.8,0.264,1.358c0.079-0.473,0.166-0.899,0.245-1.273
		c0.082-0.374,0.167-0.685,0.245-0.935l1.122-3.814h3.117l-3.179,8.99l3.419,9.215H101.773z"/>
	<path fill="#FFFFFF" d="M106.692,33.149V14.944h3.138c1.665,0,2.904,0.433,3.706,1.302c0.81,0.869,1.212,2.196,1.212,3.983
		c0,1.708-0.388,3.031-1.169,3.972c-0.78,0.945-1.873,1.419-3.283,1.419c-0.176,0-0.313,0-0.405-0.002
		c-0.097-0.005-0.186-0.014-0.266-0.021l-0.012,7.555L106.692,33.149L106.692,33.149z M109.613,22.839
		c0.034,0,0.09,0.003,0.159,0.013c0.076,0.009,0.127,0.014,0.164,0.014c0.641,0,1.126-0.223,1.461-0.669
		c0.333-0.442,0.502-1.081,0.502-1.915c0-0.864-0.161-1.503-0.477-1.915c-0.313-0.409-0.815-0.618-1.491-0.618
		c-0.032,0-0.086,0.005-0.162,0.014c-0.071,0.008-0.123,0.013-0.159,0.013L109.613,22.839L109.613,22.839z"/>
	<path fill="#FFFFFF" d="M116.446,33.149V14.944h3.14c1.729,0,2.976,0.407,3.753,1.223c0.779,0.816,1.168,2.114,1.168,3.901
		c0,1.298-0.197,2.344-0.593,3.126c-0.398,0.787-0.997,1.336-1.801,1.652l2.901,8.304h-3.182l-2.463-7.529v7.529L116.446,33.149
		L116.446,33.149z M119.366,22.839c0.035,0,0.095,0.003,0.171,0.013c0.081,0.009,0.137,0.014,0.171,0.014
		c0.652,0,1.151-0.223,1.475-0.661c0.335-0.442,0.501-1.089,0.501-1.95c0-0.873-0.154-1.507-0.456-1.907
		c-0.303-0.399-0.788-0.601-1.461-0.601c-0.101,0-0.186,0.004-0.237,0.007c-0.055,0.003-0.106,0.009-0.155,0.017L119.366,22.839z"/>
	<polygon fill="#FFFFFF" points="126.963,33.149 126.963,14.943 133.326,14.943 133.326,18.31 129.883,18.31 129.883,21.988 
		133,21.988 133,25.329 129.883,25.329 129.883,29.593 133.326,29.593 133.326,33.149 	"/>
	<path fill="#FFFFFF" d="M135.841,32.392v-3.778c0.377,0.401,0.752,0.699,1.117,0.896c0.369,0.2,0.739,0.299,1.113,0.299
		c0.511,0,0.911-0.162,1.205-0.484c0.294-0.324,0.443-0.768,0.443-1.325c0-0.689-0.396-1.438-1.19-2.242
		c-0.224-0.227-0.387-0.401-0.499-0.523c-0.92-1.001-1.56-1.894-1.908-2.691c-0.34-0.792-0.514-1.69-0.514-2.698
		c0-1.569,0.37-2.839,1.107-3.809c0.733-0.967,1.697-1.452,2.883-1.452c0.422,0,0.836,0.072,1.247,0.218
		c0.412,0.144,0.847,0.373,1.301,0.68v3.213c-0.532-0.307-0.944-0.52-1.237-0.634c-0.296-0.115-0.556-0.175-0.781-0.175
		c-0.435,0-0.789,0.167-1.065,0.495c-0.279,0.327-0.416,0.758-0.416,1.289c0,0.463,0.103,0.898,0.311,1.303
		c0.206,0.404,0.689,1,1.452,1.789c1.014,1.052,1.667,1.918,1.957,2.613c0.291,0.698,0.435,1.532,0.435,2.515
		c0,1.657-0.388,2.961-1.168,3.922c-0.774,0.958-1.833,1.439-3.174,1.439c-0.509,0-0.984-0.07-1.413-0.214
		C136.603,32.899,136.207,32.684,135.841,32.392"/>
	<path fill="#FFFFFF" d="M144.609,32.392v-3.778c0.377,0.401,0.754,0.699,1.117,0.896c0.369,0.2,0.739,0.299,1.114,0.299
		c0.511,0,0.911-0.162,1.203-0.484c0.294-0.324,0.441-0.768,0.441-1.325c0-0.689-0.395-1.438-1.188-2.242
		c-0.223-0.227-0.387-0.401-0.501-0.523c-0.92-1.001-1.558-1.894-1.904-2.691c-0.345-0.792-0.515-1.69-0.515-2.698
		c0-1.569,0.37-2.839,1.104-3.809c0.735-0.967,1.698-1.452,2.885-1.452c0.422,0,0.836,0.072,1.247,0.218
		c0.416,0.144,0.845,0.373,1.303,0.68v3.213c-0.53-0.307-0.944-0.52-1.239-0.634c-0.294-0.115-0.556-0.175-0.779-0.175
		c-0.438,0-0.791,0.167-1.07,0.495c-0.277,0.327-0.414,0.758-0.414,1.289c0,0.463,0.103,0.898,0.311,1.303
		c0.206,0.404,0.689,1,1.45,1.789c1.014,1.052,1.668,1.918,1.959,2.613c0.292,0.698,0.436,1.532,0.436,2.515
		c0,1.657-0.388,2.961-1.169,3.922c-0.774,0.958-1.835,1.439-3.172,1.439c-0.511,0-0.984-0.07-1.414-0.214
		C145.371,32.899,144.977,32.684,144.609,32.392"/>
	<path fill="#FFFFFF" d="M10.983,45.053h148.922v-3.094H18.155c-4.976,0-8.821-3.212-8.967-8.661V33.29v-0.001l0,0l-0.003-0.142
		v-0.003v-0.077L9.18,33.064v-0.082V10.134h-9.268v23.912C-0.087,41.163,4.531,45.053,10.983,45.053"/>
	<path fill="#FFFFFF" d="M159.904,37.108H19.635c-2.479,0-4.336-2.344-4.336-4.713V10.134h-4.286v22.848
		c0,4.111,2.77,7.146,7.142,7.146h141.747v-3.019L159.904,37.108L159.904,37.108z"/>
	<rect x="159.364" y="32.603" fill="#FFFFFF" width="0.548" height="0.546"/>
	<path fill="#FFFFFF" d="M157.256,31.644h0.644c0.139,0,0.24-0.03,0.308-0.083c0.062-0.057,0.098-0.15,0.098-0.271
		c0-0.113-0.032-0.204-0.096-0.261c-0.063-0.06-0.161-0.092-0.288-0.092h-0.671L157.256,31.644L157.256,31.644z M156.706,33.149
		v-2.671h1.293c0.292,0,0.506,0.06,0.643,0.183c0.14,0.126,0.209,0.316,0.209,0.575c0,0.164-0.032,0.299-0.101,0.407
		c-0.067,0.107-0.163,0.181-0.294,0.224c0.116,0.041,0.2,0.101,0.247,0.188c0.049,0.085,0.078,0.219,0.087,0.395l0.01,0.314
		c0,0.003,0,0.007,0,0.015c0.003,0.155,0.037,0.253,0.105,0.286v0.085h-0.604c-0.017-0.038-0.034-0.085-0.042-0.139
		c-0.012-0.055-0.021-0.12-0.021-0.197l-0.008-0.28c-0.005-0.168-0.034-0.277-0.095-0.336c-0.052-0.057-0.155-0.087-0.303-0.087
		h-0.581v1.04h-0.544L156.706,33.149L156.706,33.149z"/>
	<rect x="155.627" y="32.603" fill="#FFFFFF" width="0.544" height="0.546"/>
	<polygon fill="#FFFFFF" points="152.417,33.149 152.417,30.478 153.228,30.478 153.759,32.51 154.281,30.478 155.096,30.478 
		155.096,33.149 154.583,33.149 154.583,30.995 154.042,33.149 153.478,33.149 152.931,30.995 152.931,33.149 	"/>
</g>
</svg>
