<?xml version="1.0" encoding="utf-8"?>
<!-- Generator: Adobe Illustrator 18.1.1, SVG Export Plug-In . SVG Version: 6.00 Build 0)  -->
<!DOCTYPE svg PUBLIC "-//W3C//DTD SVG 1.0//EN" "http://www.w3.org/TR/2001/REC-SVG-20010904/DTD/svg10.dtd" [
	<!ENTITY st0 "fill:#A3CAEB;">
]>
<svg version="1.0" id="Layer_1" xmlns="http://www.w3.org/2000/svg" xmlns:xlink="http://www.w3.org/1999/xlink" x="0px" y="0px"
	 width="14px" height="3.1px" viewBox="0 0 14 3.1" style="enable-background:new 0 0 14 3.1;" xml:space="preserve">
<g>
	<path style="&st0;" d="M2,2V0.4h0.3c0.1,0,0.3,0,0.3,0.1c0.1,0.1,0.1,0.2,0.1,0.3c0,0.1,0,0.3-0.1,0.3C2.5,1.3,2.4,1.4,2.3,1.4
		c0,0,0,0,0,0c0,0,0,0,0,0l0,0.7L2,2L2,2z M2.3,1.1C2.3,1.1,2.3,1.1,2.3,1.1C2.3,1.1,2.3,1.1,2.3,1.1c0.1,0,0.1,0,0.2-0.1
		c0,0,0-0.1,0-0.2c0-0.1,0-0.1,0-0.2c0,0-0.1-0.1-0.1-0.1c0,0,0,0,0,0c0,0,0,0,0,0L2.3,1.1L2.3,1.1z"/>
	<path style="&st0;" d="M2.7,2L3,0.4h0.3L3.6,2H3.3l0-0.3H3L3,2H2.7z M3.1,1.5h0.2c0-0.1,0-0.2,0-0.3c0-0.1,0-0.3,0-0.4
		c0,0.1,0,0.2,0,0.4C3.1,1.2,3.1,1.4,3.1,1.5z"/>
	<path style="&st0;" d="M4.7,2L4.5,2.1L4.4,2c0,0-0.1,0-0.1,0c0,0-0.1,0-0.1,0C4,2,3.9,1.9,3.8,1.8C3.8,1.7,3.7,1.4,3.7,1.2
		c0-0.2,0-0.4,0.1-0.6C3.9,0.5,4,0.4,4.2,0.4c0.1,0,0.3,0.1,0.3,0.2C4.6,0.8,4.7,1,4.7,1.2c0,0.1,0,0.2,0,0.3c0,0.1-0.1,0.2-0.1,0.2
		L4.7,2z M4.2,1.4l0.1,0.2c0,0,0-0.1,0-0.2c0-0.1,0-0.1,0-0.2c0-0.2,0-0.3-0.1-0.4c0-0.1-0.1-0.1-0.2-0.1c-0.1,0-0.1,0-0.2,0.1
		c0,0.1,0,0.2,0,0.4C4,1.4,4,1.5,4,1.6c0,0.1,0.1,0.1,0.1,0.1c0,0,0,0,0,0c0,0,0,0,0,0L4.1,1.5L4.2,1.4z"/>
	<path style="&st0;" d="M5.7,0.4v1c0,0.1,0,0.2,0,0.3c0,0.1,0,0.1,0,0.1c0,0.1-0.1,0.1-0.1,0.2C5.4,2,5.4,2,5.3,2C5.2,2,5.1,2,5,2
		C5,1.9,4.9,1.9,4.9,1.8c0,0,0-0.1,0-0.1c0-0.1,0-0.1,0-0.3v0v-1h0.3v1c0,0.1,0,0.2,0,0.3c0,0,0.1,0.1,0.1,0.1c0.1,0,0.1,0,0.1-0.1
		c0,0,0-0.1,0-0.3v-1L5.7,0.4L5.7,0.4z"/>
	<polygon style="&st0;" points="5.9,2 5.9,0.4 6.5,0.4 6.5,0.7 6.2,0.7 6.2,1 6.5,1 6.5,1.3 6.2,1.3 6.2,1.7 6.5,1.7 6.5,2 	"/>
	<polygon style="&st0;" points="6.9,2 6.9,0.7 6.7,0.7 6.7,0.4 7.4,0.4 7.4,0.7 7.2,0.7 7.2,2 	"/>
	<polygon style="&st0;" points="7.6,2 7.6,0.4 8.2,0.4 8.2,0.7 7.9,0.7 7.9,1 8.1,1 8.1,1.3 7.9,1.3 7.9,1.7 8.2,1.7 8.2,2 	"/>
	<path style="&st0;" d="M8.9,2L8.8,1.7c0,0,0-0.1,0-0.1c0,0,0-0.1,0-0.1c0,0,0,0.1,0,0.1c0,0,0,0.1,0,0.1L8.6,2H8.3l0.3-0.8L8.3,0.4
		h0.3l0.1,0.3c0,0,0,0,0,0.1c0,0,0,0.1,0,0.1c0,0,0-0.1,0-0.1c0,0,0-0.1,0-0.1l0.1-0.3h0.3L8.9,1.2L9.2,2L8.9,2L8.9,2z"/>
	<path style="&st0;" d="M9.3,2V0.4h0.3c0.1,0,0.3,0,0.3,0.1C10,0.6,10,0.7,10,0.9c0,0.1,0,0.3-0.1,0.3C9.9,1.3,9.8,1.4,9.7,1.4
		c0,0,0,0,0,0c0,0,0,0,0,0l0,0.7L9.3,2L9.3,2z M9.6,1.1C9.6,1.1,9.6,1.1,9.6,1.1C9.6,1.1,9.6,1.1,9.6,1.1c0.1,0,0.1,0,0.2-0.1
		c0,0,0-0.1,0-0.2c0-0.1,0-0.1,0-0.2c0,0-0.1-0.1-0.1-0.1c0,0,0,0,0,0c0,0,0,0,0,0L9.6,1.1L9.6,1.1z"/>
	<path style="&st0;" d="M10.2,2V0.4h0.3c0.2,0,0.3,0,0.3,0.1c0.1,0.1,0.1,0.2,0.1,0.3c0,0.1,0,0.2-0.1,0.3c0,0.1-0.1,0.1-0.2,0.1
		L10.9,2h-0.3l-0.2-0.7V2L10.2,2L10.2,2z M10.5,1.1C10.5,1.1,10.5,1.1,10.5,1.1C10.5,1.1,10.5,1.1,10.5,1.1c0.1,0,0.1,0,0.2-0.1
		c0,0,0-0.1,0-0.2c0-0.1,0-0.1,0-0.2c0,0-0.1-0.1-0.1-0.1c0,0,0,0,0,0c0,0,0,0,0,0L10.5,1.1z"/>
	<polygon style="&st0;" points="11.1,2 11.1,0.4 11.7,0.4 11.7,0.7 11.4,0.7 11.4,1 11.6,1 11.6,1.3 11.4,1.3 11.4,1.7 11.7,1.7 
		11.7,2 	"/>
	<path style="&st0;" d="M11.9,1.9V1.6c0,0,0.1,0.1,0.1,0.1c0,0,0.1,0,0.1,0c0,0,0.1,0,0.1,0c0,0,0-0.1,0-0.1c0-0.1,0-0.1-0.1-0.2
		c0,0,0,0,0,0c-0.1-0.1-0.1-0.2-0.2-0.2c0-0.1,0-0.1,0-0.2c0-0.1,0-0.2,0.1-0.3c0.1-0.1,0.1-0.1,0.3-0.1c0,0,0.1,0,0.1,0
		c0,0,0.1,0,0.1,0.1v0.3c0,0-0.1,0-0.1-0.1c0,0,0,0-0.1,0c0,0-0.1,0-0.1,0c0,0,0,0.1,0,0.1c0,0,0,0.1,0,0.1c0,0,0.1,0.1,0.1,0.2
		c0.1,0.1,0.1,0.2,0.2,0.2c0,0.1,0,0.1,0,0.2c0,0.1,0,0.3-0.1,0.3C12.3,2,12.2,2,12.1,2c0,0-0.1,0-0.1,0C12,2,11.9,2,11.9,1.9"/>
	<path style="&st0;" d="M12.7,1.9V1.6c0,0,0.1,0.1,0.1,0.1c0,0,0.1,0,0.1,0c0,0,0.1,0,0.1,0c0,0,0-0.1,0-0.1c0-0.1,0-0.1-0.1-0.2
		c0,0,0,0,0,0c-0.1-0.1-0.1-0.2-0.2-0.2c0-0.1,0-0.1,0-0.2c0-0.1,0-0.2,0.1-0.3c0.1-0.1,0.1-0.1,0.3-0.1c0,0,0.1,0,0.1,0
		c0,0,0.1,0,0.1,0.1v0.3c0,0-0.1,0-0.1-0.1c0,0,0,0-0.1,0c0,0-0.1,0-0.1,0c0,0,0,0.1,0,0.1c0,0,0,0.1,0,0.1C13,1,13,1,13.1,1.1
		c0.1,0.1,0.1,0.2,0.2,0.2c0,0.1,0,0.1,0,0.2c0,0.1,0,0.3-0.1,0.3C13.1,2,13,2,12.9,2c0,0-0.1,0-0.1,0C12.7,2,12.7,2,12.7,1.9"/>
	<path style="&st0;" d="M1,3.1h13V2.8H1.6C1.2,2.8,0.8,2.5,0.8,2v0v0l0,0l0,0v0v0l0,0v0V0H0v2.1C0,2.7,0.4,3.1,1,3.1"/>
	<path style="&st0;" d="M14,2.4H1.7c-0.2,0-0.4-0.2-0.4-0.4V0H1v2c0,0.4,0.2,0.6,0.6,0.6H14L14,2.4L14,2.4L14,2.4z"/>
	<rect x="14" y="2" style="&st0;" width="0" height="0"/>
	<path style="&st0;" d="M13.8,1.9L13.8,1.9C13.8,1.9,13.8,1.9,13.8,1.9C13.9,1.9,13.9,1.9,13.8,1.9C13.9,1.8,13.9,1.8,13.8,1.9
		C13.8,1.8,13.8,1.8,13.8,1.9L13.8,1.9L13.8,1.9L13.8,1.9z M13.7,2V1.8h0.1c0,0,0,0,0.1,0c0,0,0,0,0,0.1c0,0,0,0,0,0c0,0,0,0,0,0
		c0,0,0,0,0,0c0,0,0,0,0,0l0,0c0,0,0,0,0,0c0,0,0,0,0,0v0h-0.1c0,0,0,0,0,0c0,0,0,0,0,0l0,0c0,0,0,0,0,0C13.8,1.9,13.8,1.9,13.7,2
		L13.7,2L13.7,2L13.7,2L13.7,2L13.7,2z"/>
	<rect x="13.6" y="2" style="&st0;" width="0" height="0"/>
	<polygon style="&st0;" points="13.3,2 13.3,1.8 13.4,1.8 13.5,2 13.5,1.8 13.6,1.8 13.6,2 13.5,2 13.5,1.8 13.5,2 13.4,2 13.4,1.8 
		13.4,2 	"/>
</g>
</svg>
