<?xml version="1.0" encoding="utf-8"?>
<!-- Generator: Adobe Illustrator 15.1.0, SVG Export Plug-In . SVG Version: 6.00 Build 0)  -->
<!DOCTYPE svg PUBLIC "-//W3C//DTD SVG 1.1//EN" "http://www.w3.org/Graphics/SVG/1.1/DTD/svg11.dtd">
<svg version="1.1" id="Layer_1" xmlns="http://www.w3.org/2000/svg" xmlns:xlink="http://www.w3.org/1999/xlink" x="0px" y="0px"
	 width="98.137px" height="21.418px" viewBox="0 0 98.137 21.418" enable-background="new 0 0 98.137 21.418" xml:space="preserve">
<path fill="#0D4E94" d="M13.982,14.116V2.95h1.923c1.021,0,1.78,0.266,2.274,0.799c0.496,0.533,0.743,1.347,0.743,2.443
	c0,1.047-0.237,1.859-0.718,2.436c-0.479,0.58-1.148,0.87-2.015,0.87c-0.108,0-0.193,0-0.249-0.002
	c-0.06-0.003-0.113-0.008-0.163-0.013l-0.006,4.634L13.982,14.116L13.982,14.116z M15.773,7.793c0.021,0,0.054,0.002,0.098,0.008
	c0.045,0.005,0.078,0.008,0.101,0.008c0.393,0,0.691-0.136,0.897-0.41c0.206-0.271,0.308-0.663,0.308-1.175
	c0-0.53-0.097-0.921-0.292-1.174c-0.192-0.251-0.498-0.379-0.912-0.379c-0.021,0-0.055,0.003-0.101,0.008
	c-0.043,0.005-0.076,0.008-0.098,0.008L15.773,7.793L15.773,7.793z"/>
<path fill="#0D4E94" d="M19.121,14.116L21.28,2.95h1.938l2.059,11.166h-1.851l-0.31-1.958h-1.863l-0.286,1.958H19.121z
	 M21.59,10.421h1.234c-0.128-0.78-0.241-1.598-0.343-2.451c-0.103-0.854-0.191-1.754-0.268-2.702
	c-0.093,0.835-0.192,1.684-0.297,2.542C21.813,8.67,21.706,9.54,21.59,10.421z"/>
<path fill="#0D4E94" d="M32.674,13.805l-1.004,1.049l-0.872-1.155c-0.192,0.153-0.409,0.266-0.649,0.342
	c-0.239,0.073-0.512,0.108-0.816,0.108c-1.03,0-1.828-0.512-2.397-1.537c-0.57-1.023-0.854-2.464-0.854-4.32
	c0-1.723,0.291-3.081,0.87-4.072c0.581-0.992,1.375-1.488,2.383-1.488c1.039,0,1.841,0.511,2.412,1.532
	c0.57,1.024,0.854,2.47,0.854,4.341c0,0.919-0.072,1.702-0.218,2.353c-0.144,0.65-0.364,1.184-0.661,1.595L32.674,13.805z
	 M29.631,9.769l0.87,1.154c0.085-0.311,0.147-0.66,0.188-1.052c0.042-0.389,0.061-0.854,0.061-1.389c0-1.201-0.12-2.109-0.357-2.717
	c-0.241-0.609-0.594-0.915-1.06-0.915c-0.482,0-0.841,0.313-1.073,0.938c-0.231,0.625-0.349,1.587-0.349,2.886
	c0,1.115,0.12,1.966,0.358,2.551c0.24,0.582,0.587,0.875,1.045,0.875c0.04,0,0.081-0.002,0.128-0.008
	c0.045-0.006,0.1-0.014,0.158-0.023l-0.973-1.3L29.631,9.769z"/>
<path fill="#0D4E94" d="M39.87,2.95v7.012c0,0.859-0.021,1.468-0.063,1.826c-0.043,0.358-0.113,0.657-0.21,0.89
	c-0.227,0.538-0.549,0.934-0.977,1.19c-0.425,0.258-0.972,0.387-1.642,0.387s-1.22-0.129-1.648-0.387
	c-0.432-0.259-0.757-0.652-0.976-1.19c-0.103-0.236-0.173-0.539-0.217-0.9c-0.041-0.362-0.063-0.965-0.063-1.814v-0.33V2.95h1.85
	v7.189c0,0.911,0.078,1.501,0.232,1.761c0.154,0.265,0.427,0.396,0.822,0.396c0.4,0,0.679-0.134,0.828-0.401
	s0.226-0.852,0.226-1.754V2.95H39.87z"/>
<polygon fill="#0D4E94" points="41.674,14.116 41.674,2.95 45.575,2.95 45.575,5.015 43.465,5.015 43.465,7.271 45.377,7.271 
	45.377,9.32 43.465,9.32 43.465,11.936 45.575,11.936 45.575,14.116 "/>
<polygon fill="#0D4E94" points="48.577,14.116 48.577,5.015 47.161,5.015 47.161,2.95 51.853,2.95 51.853,5.015 50.438,5.015 
	50.438,14.116 "/>
<polygon fill="#0D4E94" points="53.384,14.116 53.384,2.95 57.285,2.95 57.285,5.015 55.175,5.015 55.175,7.271 57.087,7.271 
	57.087,9.32 55.175,9.32 55.175,11.936 57.285,11.936 57.285,14.116 "/>
<path fill="#0D4E94" d="M62.477,14.116l-0.73-2.271c-0.071-0.235-0.14-0.491-0.199-0.767c-0.062-0.28-0.114-0.572-0.163-0.877
	c-0.045,0.311-0.098,0.605-0.151,0.882c-0.057,0.28-0.112,0.533-0.171,0.762l-0.637,2.271h-2.108l2.146-5.652L58.507,2.95h1.942
	l0.7,2.347c0.037,0.128,0.08,0.3,0.126,0.514c0.048,0.214,0.1,0.491,0.161,0.833c0.049-0.29,0.102-0.551,0.15-0.781
	c0.051-0.229,0.103-0.42,0.151-0.574l0.688-2.339h1.912l-1.95,5.514l2.098,5.652H62.477z"/>
<path fill="#0D4E94" d="M65.494,14.116V2.95h1.924c1.021,0,1.78,0.266,2.274,0.799c0.497,0.533,0.743,1.347,0.743,2.443
	c0,1.047-0.238,1.859-0.718,2.436c-0.479,0.58-1.148,0.87-2.015,0.87c-0.107,0-0.191,0-0.249-0.002
	c-0.059-0.003-0.113-0.008-0.163-0.013l-0.007,4.634L65.494,14.116L65.494,14.116z M67.285,7.793c0.021,0,0.055,0.002,0.098,0.008
	c0.047,0.005,0.078,0.008,0.101,0.008c0.393,0,0.69-0.136,0.897-0.41c0.205-0.271,0.309-0.663,0.309-1.175
	c0-0.53-0.099-0.921-0.292-1.174c-0.193-0.251-0.5-0.379-0.914-0.379c-0.021,0-0.054,0.003-0.101,0.008
	c-0.043,0.005-0.075,0.008-0.098,0.008V7.793z"/>
<path fill="#0D4E94" d="M71.477,14.116V2.95h1.925c1.059,0,1.826,0.25,2.301,0.75c0.479,0.501,0.717,1.297,0.717,2.394
	c0,0.796-0.122,1.437-0.364,1.917c-0.245,0.482-0.611,0.819-1.104,1.013l1.78,5.093h-1.952l-1.511-4.618v4.618L71.477,14.116
	L71.477,14.116z M73.268,7.793c0.021,0,0.057,0.002,0.104,0.008c0.049,0.005,0.084,0.008,0.105,0.008c0.4,0,0.705-0.136,0.905-0.405
	c0.205-0.271,0.308-0.668,0.308-1.196c0-0.535-0.094-0.924-0.28-1.169c-0.186-0.245-0.483-0.369-0.895-0.369
	c-0.063,0-0.113,0.003-0.146,0.005c-0.034,0.002-0.064,0.005-0.095,0.01L73.268,7.793z"/>
<polygon fill="#0D4E94" points="77.927,14.116 77.927,2.95 81.829,2.95 81.829,5.015 79.718,5.015 79.718,7.271 81.63,7.271 
	81.63,9.32 79.718,9.32 79.718,11.936 81.829,11.936 81.829,14.116 "/>
<path fill="#0D4E94" d="M83.373,13.652v-2.317c0.231,0.246,0.461,0.429,0.686,0.55c0.226,0.123,0.453,0.184,0.681,0.184
	c0.314,0,0.56-0.1,0.74-0.297c0.18-0.199,0.271-0.471,0.271-0.813c0-0.423-0.243-0.882-0.73-1.375
	c-0.137-0.139-0.238-0.246-0.306-0.321c-0.565-0.614-0.957-1.162-1.17-1.65c-0.209-0.486-0.315-1.037-0.315-1.655
	c0-0.963,0.227-1.741,0.678-2.336c0.45-0.593,1.04-0.89,1.769-0.89c0.259,0,0.513,0.044,0.765,0.133
	c0.253,0.088,0.519,0.229,0.798,0.417v1.971c-0.326-0.188-0.579-0.319-0.759-0.389c-0.182-0.07-0.341-0.107-0.479-0.107
	c-0.267,0-0.484,0.102-0.653,0.303c-0.171,0.201-0.255,0.465-0.255,0.791c0,0.284,0.063,0.551,0.19,0.799s0.423,0.613,0.89,1.097
	c0.622,0.645,1.023,1.177,1.201,1.603c0.178,0.428,0.267,0.94,0.267,1.543c0,1.016-0.238,1.816-0.716,2.406
	c-0.475,0.588-1.125,0.883-1.946,0.883c-0.313,0-0.604-0.043-0.867-0.131C83.84,13.963,83.597,13.831,83.373,13.652"/>
<path fill="#0D4E94" d="M88.75,13.652v-2.317c0.232,0.246,0.463,0.429,0.687,0.55c0.226,0.123,0.453,0.184,0.682,0.184
	c0.313,0,0.559-0.1,0.738-0.297c0.181-0.199,0.271-0.471,0.271-0.813c0-0.423-0.242-0.882-0.729-1.375
	c-0.138-0.139-0.238-0.246-0.308-0.321c-0.564-0.614-0.955-1.162-1.168-1.65c-0.211-0.486-0.315-1.037-0.315-1.655
	c0-0.963,0.226-1.741,0.676-2.336c0.451-0.593,1.041-0.89,1.77-0.89c0.259,0,0.513,0.044,0.765,0.133
	c0.254,0.088,0.518,0.229,0.798,0.417v1.971c-0.325-0.188-0.579-0.319-0.759-0.389c-0.181-0.07-0.341-0.107-0.479-0.107
	c-0.268,0-0.485,0.102-0.655,0.303c-0.17,0.201-0.254,0.465-0.254,0.791c0,0.284,0.063,0.551,0.19,0.799s0.423,0.613,0.889,1.097
	c0.623,0.645,1.024,1.177,1.201,1.603c0.179,0.428,0.269,0.94,0.269,1.543c0,1.016-0.238,1.816-0.717,2.406
	c-0.475,0.588-1.126,0.883-1.946,0.883c-0.313,0-0.604-0.043-0.867-0.131C89.218,13.963,88.976,13.831,88.75,13.652"/>
<path fill="#0D4E94" d="M6.79,21.418h91.343V19.52H11.19c-3.052,0-5.41-1.97-5.5-5.313v-0.004v-0.001l0,0l-0.002-0.087v-0.002
	v-0.047l-0.003-0.002v-0.051V0H0v14.666C0,19.031,2.833,21.418,6.79,21.418"/>
<path fill="#0D4E94" d="M98.132,16.545H12.097c-1.521,0-2.659-1.438-2.659-2.891V0H6.809v14.014c0,2.521,1.699,4.383,4.381,4.383
	h86.941V16.545z"/>
<rect x="97.801" y="13.781" fill="#0D4E94" width="0.336" height="0.335"/>
<path fill="#0D4E94" d="M96.507,13.193h0.396c0.085,0,0.147-0.018,0.188-0.051c0.039-0.035,0.062-0.091,0.062-0.166
	c0-0.069-0.021-0.125-0.061-0.16c-0.038-0.037-0.099-0.056-0.175-0.056h-0.412L96.507,13.193L96.507,13.193z M96.17,14.116v-1.638
	h0.794c0.18,0,0.312,0.037,0.396,0.113c0.086,0.077,0.129,0.193,0.129,0.352c0,0.101-0.021,0.184-0.063,0.25
	s-0.102,0.111-0.182,0.137c0.072,0.025,0.123,0.063,0.152,0.115s0.048,0.134,0.053,0.242l0.006,0.193c0,0.002,0,0.004,0,0.008
	c0.002,0.096,0.023,0.156,0.064,0.176v0.052h-0.37c-0.012-0.023-0.021-0.052-0.026-0.085c-0.007-0.034-0.012-0.074-0.012-0.121
	l-0.005-0.172c-0.004-0.103-0.022-0.17-0.059-0.206c-0.033-0.035-0.097-0.054-0.186-0.054h-0.357v0.638H96.17z"/>
<rect x="95.509" y="13.781" fill="#0D4E94" width="0.334" height="0.335"/>
<polygon fill="#0D4E94" points="93.539,14.116 93.539,12.479 94.037,12.479 94.363,13.725 94.683,12.479 95.183,12.479 
	95.183,14.116 94.868,14.116 94.868,12.795 94.536,14.116 94.191,14.116 93.855,12.795 93.855,14.116 "/>
</svg>
